<svg preserveAspectRatio="none" width="100%" height="100%" overflow="visible" style="display: block;" viewBox="0 0 44.3384 36.9486" fill="none" xmlns="http://www.w3.org/2000/svg">
<g id="button">
<rect id="Rectangle 23" x="0.500172" y="0.5" width="43.3382" height="35.9485" rx="2.5" fill="url(#paint0_linear_0_4)" stroke="var(--stroke-0, #1C4E73)"/>
<path id="Vector" d="M31.2098 18.893C31.2604 18.5235 31.2857 18.1417 31.2857 17.7353C31.2857 17.3412 31.2604 16.9471 31.1971 16.5776L33.7674 14.6316C33.9954 14.4592 34.0587 14.1267 33.9194 13.8803L31.4883 9.79136C31.3364 9.5204 31.0198 9.43419 30.7413 9.5204L27.7151 10.7028C27.082 10.2347 26.411 9.84062 25.6639 9.54504L25.2081 6.41673C25.1575 6.12114 24.9042 5.91176 24.6003 5.91176H19.7382C19.4344 5.91176 19.1938 6.12114 19.1431 6.41673L18.6873 9.54504C17.9403 9.84062 17.2565 10.2471 16.6361 10.7028L13.61 9.5204C13.3314 9.42187 13.0149 9.5204 12.8629 9.79136L10.4445 13.8803C10.2926 14.139 10.3432 14.4592 10.5965 14.6316L13.1668 16.5776C13.1035 16.9471 13.0528 17.3535 13.0528 17.7353C13.0528 18.1171 13.0782 18.5235 13.1415 18.893L10.5711 20.839C10.3432 21.0114 10.2799 21.3439 10.4192 21.5903L12.8503 25.6792C13.0022 25.9502 13.3187 26.0364 13.5973 25.9502L16.6234 24.7678C17.2565 25.2358 17.9276 25.63 18.6747 25.9256L19.1305 29.0539C19.1938 29.3494 19.4344 29.5588 19.7382 29.5588H24.6003C24.9042 29.5588 25.1575 29.3494 25.1954 29.0539L25.6513 25.9256C26.3983 25.63 27.082 25.2358 27.7025 24.7678L30.7286 25.9502C31.0072 26.0487 31.3237 25.9502 31.4757 25.6792L33.9067 21.5903C34.0587 21.3193 33.9954 21.0114 33.7548 20.839L31.2098 18.893ZM22.1693 22.1691C19.6623 22.1691 17.6111 20.1739 17.6111 17.7353C17.6111 15.2967 19.6623 13.3015 22.1693 13.3015C24.6763 13.3015 26.7275 15.2967 26.7275 17.7353C26.7275 20.1739 24.6763 22.1691 22.1693 22.1691Z" fill="var(--fill-0, #CCD8E8)"/>
</g>
<defs>
<linearGradient id="paint0_linear_0_4" x1="17.9311" y1="58.9179" x2="17.9311" y2="1.5378e-06" gradientUnits="userSpaceOnUse">
<stop stop-color="#336689"/>
<stop offset="1" stop-color="#4E7EA4"/>
</linearGradient>
</defs>
</svg>
